<mxfile host="app.diagrams.net" agent="Mozilla/5.0 (Windows NT 10.0; Win64; x64) AppleWebKit/537.36 (KHTML, like Gecko) Chrome/131.0.0.0 Safari/537.36" version="24.8.6">
  <diagram name="Page-1" id="Pax8_k5yHPA6iQ_h5KAr">
    <mxGraphModel dx="446" dy="549" grid="1" gridSize="10" guides="1" tooltips="1" connect="1" arrows="1" fold="1" page="1" pageScale="1" pageWidth="850" pageHeight="1100" math="0" shadow="0">
      <root>
        <mxCell id="0" />
        <mxCell id="1" parent="0" />
        <mxCell id="Ky3q4Z7bsXRnt5VfIjVb-45" style="edgeStyle=orthogonalEdgeStyle;rounded=0;orthogonalLoop=1;jettySize=auto;html=1;endArrow=none;endFill=0;" parent="1" edge="1">
          <mxGeometry relative="1" as="geometry">
            <mxPoint x="480" y="385" as="targetPoint" />
            <mxPoint x="160" y="375" as="sourcePoint" />
            <Array as="points">
              <mxPoint x="160" y="345" />
              <mxPoint x="480" y="345" />
            </Array>
          </mxGeometry>
        </mxCell>
        <mxCell id="Ky3q4Z7bsXRnt5VfIjVb-48" value="1" style="edgeLabel;html=1;align=center;verticalAlign=middle;resizable=0;points=[];" parent="Ky3q4Z7bsXRnt5VfIjVb-45" vertex="1" connectable="0">
          <mxGeometry x="-0.9126" relative="1" as="geometry">
            <mxPoint as="offset" />
          </mxGeometry>
        </mxCell>
        <mxCell id="Ky3q4Z7bsXRnt5VfIjVb-50" value="1" style="edgeLabel;html=1;align=center;verticalAlign=middle;resizable=0;points=[];" parent="Ky3q4Z7bsXRnt5VfIjVb-45" vertex="1" connectable="0">
          <mxGeometry x="0.9033" relative="1" as="geometry">
            <mxPoint as="offset" />
          </mxGeometry>
        </mxCell>
        <mxCell id="Ky3q4Z7bsXRnt5VfIjVb-1" value="Book&lt;div&gt;&lt;br&gt;&lt;div&gt;&lt;br&gt;&lt;/div&gt;&lt;div style=&quot;text-align: left;&quot;&gt;- title&lt;/div&gt;&lt;div style=&quot;text-align: left;&quot;&gt;- author&lt;/div&gt;&lt;div style=&quot;text-align: left;&quot;&gt;- ISBN&lt;/div&gt;&lt;div style=&quot;text-align: left;&quot;&gt;- status&lt;/div&gt;&lt;div style=&quot;text-align: left;&quot;&gt;- dueDate&lt;/div&gt;&lt;div style=&quot;text-align: left;&quot;&gt;&lt;br&gt;&lt;/div&gt;&lt;div style=&quot;text-align: left;&quot;&gt;&lt;br&gt;&lt;/div&gt;&lt;div style=&quot;text-align: left;&quot;&gt;+ checkAvailability()&lt;/div&gt;&lt;div style=&quot;text-align: left;&quot;&gt;+ updateStatus()&lt;/div&gt;&lt;/div&gt;" style="rounded=0;whiteSpace=wrap;html=1;" parent="1" vertex="1">
          <mxGeometry x="50" y="370" width="130" height="200" as="geometry" />
        </mxCell>
        <mxCell id="Ky3q4Z7bsXRnt5VfIjVb-2" value="" style="line;strokeWidth=2;html=1;" parent="1" vertex="1">
          <mxGeometry x="50" y="400" width="130" height="10" as="geometry" />
        </mxCell>
        <mxCell id="Ky3q4Z7bsXRnt5VfIjVb-3" value="" style="line;strokeWidth=2;html=1;" parent="1" vertex="1">
          <mxGeometry x="50" y="510" width="130" height="10" as="geometry" />
        </mxCell>
        <mxCell id="Ky3q4Z7bsXRnt5VfIjVb-40" style="edgeStyle=orthogonalEdgeStyle;rounded=0;orthogonalLoop=1;jettySize=auto;html=1;endArrow=none;endFill=0;" parent="1" source="Ky3q4Z7bsXRnt5VfIjVb-10" target="Ky3q4Z7bsXRnt5VfIjVb-17" edge="1">
          <mxGeometry relative="1" as="geometry">
            <Array as="points">
              <mxPoint x="150" y="300" />
              <mxPoint x="515" y="300" />
            </Array>
          </mxGeometry>
        </mxCell>
        <mxCell id="Ky3q4Z7bsXRnt5VfIjVb-41" value="1" style="edgeLabel;html=1;align=center;verticalAlign=middle;resizable=0;points=[];" parent="Ky3q4Z7bsXRnt5VfIjVb-40" vertex="1" connectable="0">
          <mxGeometry x="-0.9111" y="-1" relative="1" as="geometry">
            <mxPoint as="offset" />
          </mxGeometry>
        </mxCell>
        <mxCell id="Ky3q4Z7bsXRnt5VfIjVb-43" value="1" style="edgeLabel;html=1;align=center;verticalAlign=middle;resizable=0;points=[];" parent="Ky3q4Z7bsXRnt5VfIjVb-40" vertex="1" connectable="0">
          <mxGeometry x="0.9071" y="-2" relative="1" as="geometry">
            <mxPoint as="offset" />
          </mxGeometry>
        </mxCell>
        <mxCell id="Ky3q4Z7bsXRnt5VfIjVb-10" value="User&lt;div&gt;&lt;br&gt;&lt;div&gt;&lt;br&gt;&lt;div&gt;&lt;div style=&quot;text-align: left;&quot;&gt;&lt;span style=&quot;background-color: initial;&quot;&gt;- name&lt;/span&gt;&lt;/div&gt;&lt;div style=&quot;text-align: left;&quot;&gt;&lt;span style=&quot;background-color: initial;&quot;&gt;- membershipID&lt;/span&gt;&lt;/div&gt;&lt;div style=&quot;text-align: left;&quot;&gt;&lt;span style=&quot;background-color: initial;&quot;&gt;- email&lt;/span&gt;&lt;/div&gt;&lt;div style=&quot;text-align: left;&quot;&gt;&lt;br&gt;&lt;/div&gt;&lt;div style=&quot;text-align: left;&quot;&gt;&lt;br&gt;&lt;/div&gt;&lt;div style=&quot;text-align: left;&quot;&gt;+ borrowwBook()&lt;/div&gt;&lt;div style=&quot;text-align: left;&quot;&gt;+ returnBook()&lt;/div&gt;&lt;/div&gt;&lt;/div&gt;&lt;div style=&quot;text-align: left;&quot;&gt;+ searchBooks()&lt;/div&gt;&lt;div style=&quot;text-align: left;&quot;&gt;+ checkDueDate()&lt;/div&gt;&lt;/div&gt;" style="rounded=0;whiteSpace=wrap;html=1;" parent="1" vertex="1">
          <mxGeometry x="50" y="55" width="130" height="200" as="geometry" />
        </mxCell>
        <mxCell id="Ky3q4Z7bsXRnt5VfIjVb-11" value="" style="line;strokeWidth=2;html=1;" parent="1" vertex="1">
          <mxGeometry x="50" y="85" width="130" height="10" as="geometry" />
        </mxCell>
        <mxCell id="Ky3q4Z7bsXRnt5VfIjVb-12" value="" style="line;strokeWidth=2;html=1;" parent="1" vertex="1">
          <mxGeometry x="50" y="165" width="130" height="10" as="geometry" />
        </mxCell>
        <mxCell id="Ky3q4Z7bsXRnt5VfIjVb-28" style="edgeStyle=orthogonalEdgeStyle;rounded=0;orthogonalLoop=1;jettySize=auto;html=1;entryX=1;entryY=0.5;entryDx=0;entryDy=0;shape=flexArrow;" parent="1" source="Ky3q4Z7bsXRnt5VfIjVb-14" target="Ky3q4Z7bsXRnt5VfIjVb-10" edge="1">
          <mxGeometry relative="1" as="geometry" />
        </mxCell>
        <mxCell id="Ky3q4Z7bsXRnt5VfIjVb-14" value="Admin&lt;br&gt;&lt;div&gt;&lt;br&gt;&lt;div&gt;&lt;br&gt;&lt;div&gt;&lt;div style=&quot;text-align: left;&quot;&gt;&lt;span style=&quot;background-color: initial;&quot;&gt;- adminID&lt;/span&gt;&lt;/div&gt;&lt;div style=&quot;text-align: left;&quot;&gt;&lt;br&gt;&lt;/div&gt;&lt;div style=&quot;text-align: left;&quot;&gt;&lt;br&gt;&lt;/div&gt;&lt;div style=&quot;text-align: left;&quot;&gt;+ manageInventory()&lt;/div&gt;&lt;div style=&quot;text-align: left;&quot;&gt;+ generateReport()&lt;/div&gt;&lt;/div&gt;&lt;/div&gt;&lt;div style=&quot;text-align: left;&quot;&gt;+ updateUserDetails()&lt;/div&gt;&lt;/div&gt;" style="rounded=0;whiteSpace=wrap;html=1;" parent="1" vertex="1">
          <mxGeometry x="310" y="80" width="130" height="150" as="geometry" />
        </mxCell>
        <mxCell id="Ky3q4Z7bsXRnt5VfIjVb-15" value="" style="line;strokeWidth=2;html=1;" parent="1" vertex="1">
          <mxGeometry x="310" y="110" width="130" height="10" as="geometry" />
        </mxCell>
        <mxCell id="Ky3q4Z7bsXRnt5VfIjVb-16" value="" style="line;strokeWidth=2;html=1;" parent="1" vertex="1">
          <mxGeometry x="310" y="160" width="130" height="10" as="geometry" />
        </mxCell>
        <mxCell id="Ky3q4Z7bsXRnt5VfIjVb-17" value="Loan&lt;br&gt;&lt;div&gt;&lt;br&gt;&lt;div&gt;&lt;br&gt;&lt;/div&gt;&lt;div style=&quot;text-align: left;&quot;&gt;- loanDate&lt;/div&gt;&lt;div style=&quot;text-align: left;&quot;&gt;- dueDate&lt;/div&gt;&lt;div style=&quot;text-align: left;&quot;&gt;&lt;br&gt;&lt;/div&gt;&lt;div style=&quot;text-align: left;&quot;&gt;&lt;br&gt;&lt;/div&gt;&lt;div style=&quot;text-align: left;&quot;&gt;+ updateLoanStatus()&lt;/div&gt;&lt;div style=&quot;text-align: left;&quot;&gt;+ setLoanDates()&lt;/div&gt;&lt;/div&gt;" style="rounded=0;whiteSpace=wrap;html=1;" parent="1" vertex="1">
          <mxGeometry x="450" y="385" width="130" height="150" as="geometry" />
        </mxCell>
        <mxCell id="Ky3q4Z7bsXRnt5VfIjVb-18" value="" style="line;strokeWidth=2;html=1;" parent="1" vertex="1">
          <mxGeometry x="450" y="415" width="130" height="10" as="geometry" />
        </mxCell>
        <mxCell id="Ky3q4Z7bsXRnt5VfIjVb-19" value="" style="line;strokeWidth=2;html=1;" parent="1" vertex="1">
          <mxGeometry x="450" y="475" width="130" height="10" as="geometry" />
        </mxCell>
        <mxCell id="Ky3q4Z7bsXRnt5VfIjVb-20" value="Inventory&lt;br&gt;&lt;div&gt;&lt;br&gt;&lt;div&gt;&lt;br&gt;&lt;/div&gt;&lt;div style=&quot;text-align: left;&quot;&gt;- books[ ]&lt;/div&gt;&lt;div style=&quot;text-align: left;&quot;&gt;- totalBooks&lt;/div&gt;&lt;div style=&quot;text-align: left;&quot;&gt;&lt;br&gt;&lt;/div&gt;&lt;div style=&quot;text-align: left;&quot;&gt;&lt;br&gt;&lt;/div&gt;&lt;div style=&quot;text-align: left;&quot;&gt;+ addBook()&lt;/div&gt;&lt;div style=&quot;text-align: left;&quot;&gt;+ removeBook()&lt;/div&gt;&lt;/div&gt;&lt;div style=&quot;text-align: left;&quot;&gt;+ updateBookInfo()&lt;/div&gt;" style="rounded=0;whiteSpace=wrap;html=1;" parent="1" vertex="1">
          <mxGeometry x="267" y="380" width="130" height="160" as="geometry" />
        </mxCell>
        <mxCell id="Ky3q4Z7bsXRnt5VfIjVb-21" value="" style="line;strokeWidth=2;html=1;" parent="1" vertex="1">
          <mxGeometry x="267" y="410" width="130" height="10" as="geometry" />
        </mxCell>
        <mxCell id="Ky3q4Z7bsXRnt5VfIjVb-22" value="" style="line;strokeWidth=2;html=1;" parent="1" vertex="1">
          <mxGeometry x="267" y="470" width="130" height="10" as="geometry" />
        </mxCell>
        <mxCell id="Ky3q4Z7bsXRnt5VfIjVb-30" value="" style="endArrow=none;html=1;rounded=0;entryX=0.547;entryY=0.997;entryDx=0;entryDy=0;entryPerimeter=0;" parent="1" target="Ky3q4Z7bsXRnt5VfIjVb-10" edge="1">
          <mxGeometry width="50" height="50" relative="1" as="geometry">
            <mxPoint x="120" y="369" as="sourcePoint" />
            <mxPoint x="120" y="260" as="targetPoint" />
          </mxGeometry>
        </mxCell>
        <mxCell id="Ky3q4Z7bsXRnt5VfIjVb-33" value="0" style="edgeLabel;html=1;align=center;verticalAlign=middle;resizable=0;points=[];" parent="Ky3q4Z7bsXRnt5VfIjVb-30" vertex="1" connectable="0">
          <mxGeometry x="-0.6134" y="2" relative="1" as="geometry">
            <mxPoint y="1" as="offset" />
          </mxGeometry>
        </mxCell>
        <mxCell id="Ky3q4Z7bsXRnt5VfIjVb-34" value="1" style="edgeLabel;html=1;align=center;verticalAlign=middle;resizable=0;points=[];" parent="Ky3q4Z7bsXRnt5VfIjVb-30" vertex="1" connectable="0">
          <mxGeometry x="0.5184" y="2" relative="1" as="geometry">
            <mxPoint as="offset" />
          </mxGeometry>
        </mxCell>
        <mxCell id="Ky3q4Z7bsXRnt5VfIjVb-35" value="" style="endArrow=diamond;html=1;rounded=0;entryX=-0.016;entryY=0.563;entryDx=0;entryDy=0;entryPerimeter=0;endFill=1;" parent="1" edge="1">
          <mxGeometry width="50" height="50" relative="1" as="geometry">
            <mxPoint x="181" y="470" as="sourcePoint" />
            <mxPoint x="265.92" y="470.0799999999999" as="targetPoint" />
          </mxGeometry>
        </mxCell>
        <mxCell id="Ky3q4Z7bsXRnt5VfIjVb-51" value="0" style="edgeLabel;html=1;align=center;verticalAlign=middle;resizable=0;points=[];" parent="Ky3q4Z7bsXRnt5VfIjVb-35" vertex="1" connectable="0">
          <mxGeometry x="-0.7897" y="1" relative="1" as="geometry">
            <mxPoint x="1" as="offset" />
          </mxGeometry>
        </mxCell>
        <mxCell id="Ky3q4Z7bsXRnt5VfIjVb-53" value="1" style="edgeLabel;html=1;align=center;verticalAlign=middle;resizable=0;points=[];" parent="Ky3q4Z7bsXRnt5VfIjVb-35" vertex="1" connectable="0">
          <mxGeometry x="0.5243" y="1" relative="1" as="geometry">
            <mxPoint x="1" as="offset" />
          </mxGeometry>
        </mxCell>
      </root>
    </mxGraphModel>
  </diagram>
</mxfile>
